<svg xmlns="http://www.w3.org/2000/svg" viewBox="0 0 32 32">
  <rect width="32" height="32" fill="white"/>

  <!-- R main body -->
  <path
    d="M10 4
       H17
       C22 4 25 7 25 11
       C25 14 23 16 20 17
       L25 28
       H21
       L17 18
       H14
       V28
       H10
       Z
       
       M14 8
       V14
       H17
       C19.5 14 21 12.5 21 11
       C21 9.5 19.5 8 17 8
       Z"
    fill="#4CAF50"/>

  <!-- Roots -->
  <path
    d="M11 28
       C9 30 7 31 5 32
       M14 28
       C13 30 12 31 10 32
       M17 28
       C17 30 18 31 19 32
       M20 28
       C21 30 23 31 25 32"
    stroke="#4CAF50"
    stroke-width="1.2"
    fill="none"
    stroke-linecap="round"/>
</svg>
